<svg xmlns="http://www.w3.org/2000/svg" xmlns:xlink="http://www.w3.org/1999/xlink" width="48" zoomAndPan="magnify" viewBox="0 0 36 36.000001" height="48" preserveAspectRatio="xMidYMid meet" version="1.0"><path fill="#5ca4e8" d="M 8.152344 15.21875 L 8.152344 15.269531 L 8.257812 15.269531 L 8.257812 15.320312 L 8.359375 15.320312 L 8.359375 15.371094 L 8.460938 15.371094 L 8.460938 15.421875 L 8.511719 15.421875 L 8.511719 15.472656 L 8.5625 15.472656 L 8.5625 15.523438 L 8.664062 15.523438 L 8.664062 15.574219 L 8.714844 15.574219 L 8.714844 15.625 L 8.765625 15.625 L 8.765625 15.675781 L 8.816406 15.675781 L 8.839844 15.777344 L 8.890625 15.777344 L 8.917969 15.878906 L 8.96875 15.878906 L 8.992188 15.167969 L 10.648438 15.167969 L 10.648438 20.613281 L 8.992188 20.613281 L 8.992188 19.847656 L 8.941406 19.847656 L 8.941406 19.898438 L 8.890625 19.898438 L 8.882812 19.945312 C 8.867188 20 8.867188 20 8.839844 20.050781 L 8.789062 20.050781 L 8.789062 20.101562 L 8.738281 20.101562 L 8.738281 20.152344 L 8.6875 20.152344 L 8.6875 20.203125 C 8.597656 20.296875 8.496094 20.375 8.382812 20.433594 L 8.300781 20.480469 C 8.191406 20.535156 8.078125 20.570312 7.964844 20.605469 C 7.945312 20.609375 7.925781 20.613281 7.910156 20.621094 C 7.527344 20.730469 7.105469 20.71875 6.722656 20.636719 C 6.585938 20.601562 6.453125 20.558594 6.324219 20.511719 L 6.324219 20.460938 L 6.222656 20.460938 L 6.222656 20.410156 L 6.117188 20.410156 L 6.117188 20.359375 L 6.066406 20.359375 L 6.066406 20.304688 L 5.964844 20.304688 L 5.964844 20.253906 L 5.914062 20.253906 L 5.914062 20.203125 L 5.863281 20.203125 L 5.863281 20.152344 L 5.789062 20.152344 L 5.789062 20.101562 L 5.738281 20.101562 L 5.738281 20.050781 L 5.660156 20.050781 L 5.636719 19.949219 L 5.585938 19.949219 L 5.558594 19.847656 L 5.507812 19.847656 L 5.507812 19.796875 L 5.457031 19.796875 L 5.40625 19.644531 L 5.355469 19.644531 L 5.304688 19.492188 L 5.253906 19.492188 L 5.253906 19.390625 L 5.203125 19.390625 L 5.203125 19.289062 L 5.152344 19.289062 C 5.046875 19.023438 4.976562 18.753906 4.921875 18.476562 L 4.910156 18.402344 C 4.886719 18.242188 4.890625 18.082031 4.890625 17.917969 L 4.890625 17.863281 C 4.890625 17.582031 4.902344 17.320312 4.972656 17.050781 L 4.988281 16.996094 C 5.070312 16.65625 5.199219 16.316406 5.429688 16.042969 C 5.464844 16.003906 5.464844 16.003906 5.484375 15.929688 L 5.535156 15.929688 C 5.539062 15.917969 5.546875 15.902344 5.550781 15.886719 C 5.59375 15.8125 5.644531 15.761719 5.707031 15.699219 L 5.773438 15.632812 C 5.835938 15.578125 5.894531 15.539062 5.964844 15.5 L 6 15.460938 C 6.046875 15.417969 6.089844 15.394531 6.144531 15.367188 L 6.207031 15.335938 L 6.273438 15.308594 L 6.335938 15.277344 C 6.898438 15.019531 7.574219 15.015625 8.152344 15.21875 M 7.183594 16.6875 C 7.128906 16.726562 7.082031 16.769531 7.035156 16.820312 L 6.957031 16.847656 L 6.957031 16.898438 L 6.90625 16.898438 C 6.882812 16.9375 6.855469 16.980469 6.832031 17.023438 L 6.78125 17.097656 C 6.636719 17.320312 6.597656 17.570312 6.578125 17.832031 C 6.574219 18.117188 6.628906 18.371094 6.753906 18.628906 L 6.78125 18.679688 C 6.796875 18.714844 6.8125 18.746094 6.832031 18.78125 L 6.882812 18.78125 L 6.882812 18.832031 L 6.933594 18.832031 L 6.933594 18.882812 L 6.984375 18.882812 L 6.984375 18.933594 L 7.035156 18.933594 L 7.035156 18.984375 L 7.085938 18.984375 L 7.085938 19.035156 L 7.1875 19.035156 L 7.1875 19.085938 C 7.382812 19.195312 7.566406 19.238281 7.792969 19.246094 C 7.972656 19.246094 8.140625 19.203125 8.308594 19.136719 C 8.359375 19.105469 8.410156 19.070312 8.460938 19.035156 L 8.535156 18.984375 L 8.535156 18.933594 L 8.585938 18.933594 L 8.585938 18.882812 L 8.636719 18.882812 L 8.636719 18.832031 L 8.6875 18.832031 C 8.816406 18.695312 8.886719 18.535156 8.9375 18.355469 C 9.003906 18.042969 9.011719 17.675781 8.917969 17.371094 C 8.875 17.257812 8.824219 17.152344 8.765625 17.050781 L 8.714844 17.050781 L 8.664062 16.898438 L 8.613281 16.898438 L 8.613281 16.847656 L 8.5625 16.847656 L 8.5625 16.796875 L 8.484375 16.796875 L 8.484375 16.746094 L 8.410156 16.746094 L 8.410156 16.695312 L 8.308594 16.695312 L 8.308594 16.644531 L 8.207031 16.644531 L 8.207031 16.59375 C 7.875 16.484375 7.484375 16.507812 7.183594 16.6875 M 21.738281 15.191406 C 21.773438 15.203125 21.808594 15.210938 21.839844 15.21875 L 21.839844 15.269531 L 21.945312 15.269531 L 21.945312 15.320312 L 22.046875 15.320312 L 22.046875 15.371094 L 22.148438 15.371094 L 22.148438 15.421875 L 22.199219 15.421875 L 22.199219 15.472656 L 22.300781 15.472656 L 22.300781 15.523438 L 22.351562 15.523438 L 22.351562 15.574219 L 22.402344 15.574219 L 22.402344 15.625 L 22.453125 15.625 L 22.453125 15.675781 L 22.503906 15.675781 L 22.503906 15.726562 L 22.554688 15.726562 L 22.574219 15.777344 L 22.605469 15.828125 L 22.679688 15.855469 L 22.675781 15.804688 C 22.625 15.332031 22.625 15.332031 22.679688 15.167969 L 24.335938 15.167969 L 24.335938 20.613281 L 22.679688 20.613281 C 22.65625 20.027344 22.65625 20.027344 22.679688 19.898438 L 22.632812 19.949219 L 22.578125 20 L 22.527344 20 L 22.523438 20.046875 C 22.503906 20.101562 22.503906 20.101562 22.457031 20.160156 L 22.402344 20.203125 L 22.324219 20.203125 L 22.324219 20.253906 C 22.246094 20.324219 22.164062 20.382812 22.070312 20.433594 L 21.988281 20.480469 C 21.566406 20.679688 21.117188 20.714844 20.65625 20.683594 C 20.394531 20.65625 20.148438 20.558594 19.90625 20.460938 L 19.90625 20.410156 L 19.855469 20.410156 L 19.855469 20.359375 L 19.753906 20.359375 L 19.753906 20.304688 L 19.679688 20.304688 L 19.679688 20.253906 L 19.601562 20.253906 L 19.601562 20.203125 L 19.550781 20.203125 L 19.550781 20.152344 L 19.5 20.152344 L 19.5 20.101562 L 19.425781 20.101562 L 19.425781 20.050781 L 19.375 20.050781 L 19.375 20 L 19.324219 20 L 19.296875 19.898438 L 19.246094 19.898438 L 19.246094 19.847656 L 19.195312 19.847656 L 19.195312 19.796875 L 19.144531 19.796875 L 19.09375 19.644531 L 19.042969 19.644531 C 18.707031 19 18.546875 18.394531 18.582031 17.660156 C 18.609375 17.175781 18.710938 16.707031 18.964844 16.285156 C 18.988281 16.25 19.007812 16.210938 19.027344 16.171875 C 19.074219 16.085938 19.125 16.023438 19.195312 15.957031 L 19.222656 15.878906 L 19.273438 15.878906 L 19.289062 15.839844 C 19.335938 15.753906 19.402344 15.6875 19.476562 15.625 L 19.527344 15.625 L 19.527344 15.574219 C 19.566406 15.546875 19.609375 15.523438 19.652344 15.5 L 19.71875 15.453125 C 20.308594 15.0625 21.074219 14.976562 21.738281 15.191406 M 20.894531 16.675781 C 20.839844 16.710938 20.792969 16.75 20.746094 16.796875 L 20.683594 16.851562 C 20.527344 16.996094 20.4375 17.132812 20.367188 17.328125 L 20.335938 17.414062 C 20.25 17.726562 20.273438 18.070312 20.34375 18.386719 C 20.371094 18.496094 20.410156 18.582031 20.46875 18.679688 L 20.519531 18.679688 L 20.570312 18.832031 L 20.621094 18.832031 L 20.621094 18.882812 L 20.671875 18.882812 L 20.671875 18.933594 L 20.722656 18.933594 L 20.722656 18.984375 L 20.773438 18.984375 L 20.773438 19.035156 L 20.875 19.035156 L 20.875 19.085938 L 20.976562 19.085938 L 20.976562 19.136719 L 21.078125 19.136719 L 21.078125 19.1875 C 21.328125 19.25 21.578125 19.265625 21.832031 19.207031 C 22.035156 19.140625 22.226562 19.007812 22.375 18.855469 L 22.375 18.78125 L 22.425781 18.78125 C 22.554688 18.613281 22.625 18.429688 22.65625 18.21875 C 22.6875 17.847656 22.675781 17.5 22.527344 17.152344 L 22.503906 17.101562 L 22.453125 17.101562 L 22.402344 16.949219 L 22.351562 16.949219 L 22.351562 16.898438 L 22.300781 16.898438 L 22.300781 16.847656 L 22.25 16.847656 L 22.25 16.796875 L 22.199219 16.796875 L 22.199219 16.746094 L 22.097656 16.746094 L 22.097656 16.695312 C 21.863281 16.570312 21.671875 16.527344 21.40625 16.535156 C 21.226562 16.546875 21.054688 16.585938 20.894531 16.675781 M 11.894531 13.386719 L 13.523438 13.386719 L 13.523438 20.613281 L 11.867188 20.613281 C 11.867188 19.566406 11.867188 18.519531 11.867188 17.472656 C 11.867188 17.121094 11.867188 16.773438 11.867188 16.425781 C 11.867188 16.066406 11.867188 15.710938 11.867188 15.351562 C 11.867188 15.128906 11.867188 14.910156 11.867188 14.6875 C 11.867188 14.539062 11.867188 14.386719 11.867188 14.234375 C 11.867188 14.148438 11.867188 14.058594 11.867188 13.972656 C 11.867188 13.878906 11.867188 13.78125 11.867188 13.6875 L 11.867188 13.410156 Z M 18.128906 15.117188 C 18.128906 15.339844 18.128906 15.566406 18.128906 15.792969 C 18.128906 15.898438 18.128906 16 18.128906 16.105469 C 18.128906 16.207031 18.128906 16.308594 18.128906 16.40625 C 18.128906 16.445312 18.128906 16.484375 18.128906 16.523438 C 18.128906 16.578125 18.128906 16.632812 18.128906 16.683594 L 18.128906 16.847656 L 18.101562 16.871094 C 18.054688 16.875 18.007812 16.875 17.960938 16.878906 C 17.414062 16.875 17.414062 16.875 16.898438 17.039062 C 16.839844 17.074219 16.800781 17.105469 16.753906 17.152344 L 16.675781 17.152344 L 16.671875 17.191406 C 16.652344 17.253906 16.652344 17.253906 16.605469 17.320312 C 16.464844 17.539062 16.433594 17.800781 16.417969 18.054688 C 16.414062 18.238281 16.414062 18.417969 16.410156 18.597656 C 16.410156 18.65625 16.410156 18.714844 16.410156 18.773438 C 16.410156 18.925781 16.410156 19.078125 16.40625 19.230469 C 16.40625 19.414062 16.40625 19.597656 16.402344 19.78125 C 16.402344 20.058594 16.398438 20.335938 16.398438 20.613281 L 14.742188 20.613281 L 14.742188 15.167969 L 16.371094 15.167969 L 16.371094 16.03125 C 16.496094 15.957031 16.507812 15.945312 16.574219 15.828125 C 16.621094 15.773438 16.671875 15.722656 16.726562 15.671875 L 16.765625 15.632812 C 16.839844 15.558594 16.914062 15.5 17.007812 15.449219 L 17.078125 15.398438 C 17.242188 15.292969 17.398438 15.230469 17.582031 15.175781 L 17.636719 15.160156 C 17.808594 15.109375 17.953125 15.082031 18.128906 15.117188 M 31.203125 15.472656 L 31.203125 15.523438 L 31.277344 15.535156 C 31.355469 15.550781 31.355469 15.550781 31.40625 15.574219 L 31.40625 15.625 L 31.457031 15.625 L 31.457031 15.675781 L 31.507812 15.675781 L 31.507812 15.726562 L 31.558594 15.726562 C 31.660156 15.90625 31.710938 16.082031 31.71875 16.285156 C 31.714844 16.46875 31.675781 16.640625 31.589844 16.800781 C 31.519531 16.910156 31.429688 16.992188 31.320312 17.058594 C 31.152344 17.132812 30.957031 17.132812 30.78125 17.121094 C 30.734375 17.117188 30.6875 17.109375 30.644531 17.101562 L 30.644531 17.050781 L 30.542969 17.050781 L 30.542969 17 L 30.464844 17 L 30.464844 16.949219 L 30.390625 16.949219 L 30.363281 16.847656 L 30.3125 16.847656 L 30.3125 16.9375 C 30.3125 17.046875 30.316406 17.160156 30.316406 17.269531 C 30.316406 17.316406 30.316406 17.363281 30.316406 17.414062 C 30.316406 17.480469 30.316406 17.550781 30.316406 17.621094 L 30.316406 17.683594 C 30.316406 17.734375 30.316406 17.789062 30.3125 17.839844 L 30.289062 17.863281 C 30.21875 17.867188 30.152344 17.867188 30.085938 17.863281 C 30.082031 17.554688 30.082031 17.25 30.082031 16.941406 C 30.082031 16.796875 30.082031 16.652344 30.082031 16.511719 C 30.082031 16.375 30.082031 16.234375 30.082031 16.097656 C 30.082031 16.042969 30.082031 15.992188 30.082031 15.9375 C 30.082031 15.867188 30.082031 15.792969 30.082031 15.71875 L 30.082031 15.652344 C 30.082031 15.601562 30.082031 15.550781 30.085938 15.5 L 30.109375 15.472656 C 30.167969 15.472656 30.230469 15.472656 30.289062 15.472656 L 30.339844 15.675781 L 30.464844 15.625 L 30.464844 15.574219 C 30.710938 15.445312 30.929688 15.414062 31.203125 15.472656 M 30.515625 15.777344 L 30.515625 15.828125 L 30.464844 15.828125 C 30.425781 15.882812 30.425781 15.882812 30.390625 15.957031 L 30.347656 16.035156 C 30.292969 16.164062 30.300781 16.300781 30.3125 16.441406 C 30.332031 16.511719 30.359375 16.574219 30.390625 16.644531 L 30.441406 16.644531 L 30.464844 16.746094 L 30.542969 16.746094 L 30.542969 16.796875 L 30.59375 16.796875 L 30.59375 16.847656 L 30.695312 16.847656 L 30.695312 16.898438 C 30.835938 16.917969 30.960938 16.933594 31.101562 16.898438 C 31.210938 16.835938 31.300781 16.765625 31.382812 16.667969 C 31.464844 16.511719 31.472656 16.34375 31.46875 16.167969 C 31.453125 16.050781 31.417969 15.976562 31.355469 15.878906 L 31.304688 15.878906 L 31.304688 15.828125 L 31.253906 15.828125 L 31.253906 15.777344 L 31.203125 15.777344 L 31.203125 15.726562 L 31.101562 15.726562 L 31.101562 15.675781 C 30.871094 15.636719 30.722656 15.660156 30.515625 15.777344 M 28.253906 15.472656 L 28.253906 15.523438 L 28.355469 15.523438 L 28.355469 15.574219 L 28.429688 15.574219 L 28.429688 15.625 L 28.507812 15.625 L 28.558594 15.777344 L 28.609375 15.777344 C 28.695312 15.996094 28.710938 16.144531 28.710938 16.386719 L 27.414062 16.414062 L 27.464844 16.695312 L 27.515625 16.695312 L 27.539062 16.796875 L 27.640625 16.796875 L 27.640625 16.847656 C 27.898438 16.898438 27.898438 16.898438 28.152344 16.871094 C 28.257812 16.816406 28.3125 16.761719 28.375 16.664062 C 28.414062 16.609375 28.414062 16.609375 28.457031 16.566406 C 28.53125 16.546875 28.582031 16.554688 28.660156 16.566406 C 28.679688 16.605469 28.679688 16.605469 28.683594 16.667969 C 28.65625 16.730469 28.621094 16.789062 28.582031 16.847656 L 28.53125 16.847656 L 28.53125 16.898438 L 28.480469 16.898438 L 28.480469 16.949219 L 28.429688 16.949219 L 28.429688 17 C 28.3125 17.078125 28.222656 17.113281 28.082031 17.125 C 27.933594 17.128906 27.789062 17.132812 27.640625 17.101562 L 27.640625 17.050781 L 27.515625 17.050781 L 27.515625 17 L 27.4375 17 L 27.4375 16.949219 L 27.386719 16.949219 L 27.386719 16.898438 L 27.335938 16.898438 L 27.335938 16.847656 L 27.285156 16.847656 L 27.261719 16.746094 L 27.210938 16.746094 C 27.125 16.535156 27.117188 16.332031 27.132812 16.109375 C 27.148438 16.011719 27.171875 15.917969 27.210938 15.828125 C 27.234375 15.804688 27.261719 15.777344 27.285156 15.753906 L 27.3125 15.675781 L 27.363281 15.675781 L 27.363281 15.625 C 27.640625 15.429688 27.929688 15.425781 28.253906 15.472656 M 27.585938 15.765625 C 27.492188 15.84375 27.449219 15.925781 27.40625 16.039062 C 27.382812 16.109375 27.382812 16.109375 27.386719 16.183594 L 28.457031 16.183594 C 28.433594 15.992188 28.433594 15.992188 28.355469 15.828125 L 28.304688 15.828125 L 28.304688 15.777344 L 28.226562 15.777344 L 28.226562 15.726562 L 28.152344 15.726562 L 28.152344 15.675781 C 27.855469 15.65625 27.855469 15.65625 27.585938 15.765625 M 32.730469 15.242188 C 32.808594 15.238281 32.808594 15.238281 32.882812 15.242188 L 32.910156 15.269531 C 32.914062 15.316406 32.914062 15.359375 32.917969 15.40625 L 32.917969 15.488281 L 32.921875 15.574219 L 32.925781 15.664062 C 32.929688 15.734375 32.929688 15.808594 32.933594 15.878906 L 32.988281 15.882812 C 33.074219 15.882812 33.15625 15.886719 33.238281 15.890625 L 33.410156 15.898438 L 33.484375 15.898438 L 33.542969 15.90625 L 33.570312 15.929688 L 33.570312 16.109375 L 32.933594 16.132812 L 32.910156 16.769531 C 32.730469 16.769531 32.730469 16.769531 32.679688 16.746094 C 32.679688 16.648438 32.679688 16.554688 32.679688 16.457031 L 32.675781 16.375 L 32.675781 16.222656 C 32.679688 16.160156 32.679688 16.160156 32.703125 16.082031 L 32.042969 16.082031 L 32.042969 15.929688 L 32.070312 15.90625 C 32.113281 15.902344 32.15625 15.898438 32.199219 15.898438 L 32.277344 15.894531 L 32.449219 15.886719 C 32.515625 15.886719 32.585938 15.882812 32.652344 15.878906 L 32.65625 15.828125 C 32.65625 15.75 32.660156 15.667969 32.664062 15.589844 C 32.664062 15.5625 32.664062 15.535156 32.667969 15.507812 L 32.667969 15.425781 L 32.671875 15.355469 L 32.679688 15.292969 Z M 29.09375 15.472656 C 29.160156 15.46875 29.226562 15.472656 29.296875 15.472656 L 29.320312 15.625 L 29.378906 15.578125 C 29.4375 15.53125 29.480469 15.5 29.550781 15.472656 C 29.621094 15.46875 29.621094 15.46875 29.695312 15.46875 L 29.773438 15.472656 L 29.832031 15.472656 C 29.847656 15.558594 29.847656 15.558594 29.855469 15.652344 L 29.804688 15.703125 C 29.75 15.714844 29.75 15.714844 29.683594 15.726562 C 29.582031 15.746094 29.503906 15.761719 29.421875 15.828125 C 29.367188 15.898438 29.347656 15.949219 29.332031 16.035156 C 29.320312 16.144531 29.316406 16.253906 29.3125 16.363281 L 29.3125 16.425781 C 29.308594 16.496094 29.308594 16.5625 29.308594 16.628906 L 29.304688 16.765625 C 29.300781 16.878906 29.296875 16.988281 29.296875 17.101562 L 29.066406 17.101562 C 29.066406 16.890625 29.066406 16.683594 29.066406 16.476562 C 29.066406 16.378906 29.066406 16.28125 29.066406 16.183594 C 29.066406 16.089844 29.066406 16 29.066406 15.90625 C 29.0625 15.867188 29.0625 15.832031 29.0625 15.796875 C 29.0625 15.746094 29.0625 15.699219 29.0625 15.648438 L 29.0625 15.5625 L 29.066406 15.5 Z M 29.09375 15.472656 " fill-opacity="1" fill-rule="nonzero"/></svg>